<svg width="193" height="44" viewBox="0 0 193 44" fill="none" xmlns="http://www.w3.org/2000/svg">
<g clip-path="url(#clip0_257_9461)">
<path d="M19.2274 5.00269H5.48571V12.7115H18.1801V17.2347H5.48571V26.4263H0.171875V0.479492H19.2274V5.00269Z" fill="#E8833A"/>
<path d="M45.5826 26.4263H39.3974C38.4574 19.3841 37.6977 17.7891 33.8304 17.7891H28.4779V26.4263H23.1641V0.479492H36.8307C42.3999 0.479492 45.6899 3.55729 45.6899 8.70749C45.6899 13.1933 42.9407 16.2315 38.2063 17.1577C43.0523 17.6395 44.2456 19.6041 45.5826 26.4241M28.4779 13.2285H35.2404C38.2772 13.2285 40.3375 11.5235 40.3375 9.00229C40.3375 6.48109 38.7107 4.99829 35.7082 4.99829H28.4758V13.2263L28.4779 13.2285Z" fill="#E8833A"/>
<path d="M85.8828 13.6003C85.8828 5.51966 91.0893 0.109863 98.8283 0.109863C106.567 0.109863 111.774 5.52186 111.774 13.6003C111.774 21.6787 106.567 26.7959 98.8283 26.7959C91.0893 26.7959 85.8828 21.5313 85.8828 13.6003ZM106.494 13.6003C106.494 8.04086 103.601 4.63086 98.8283 4.63086C94.0553 4.63086 91.1623 8.04086 91.1623 13.6003C91.1623 19.1597 94.0553 22.2749 98.8283 22.2749C103.601 22.2749 106.494 18.9771 106.494 13.6003Z" fill="#E8833A"/>
<path d="M115.709 16.5659V0.479492H121.025V16.3811C121.025 20.4951 122.978 22.2749 126.738 22.2749C130.498 22.2749 132.451 20.4951 132.451 16.3811V0.479492H137.767V16.5659C137.767 23.3485 133.717 26.7981 126.738 26.7981C119.759 26.7981 115.709 23.3507 115.709 16.5659Z" fill="#E8833A"/>
<path d="M164.12 26.4263H157.937C156.997 19.3841 156.237 17.7891 152.367 17.7891H147.017V26.4263H141.701V0.479492H155.37C160.939 0.479492 164.229 3.55729 164.229 8.70749C164.229 13.1933 161.482 16.2315 156.743 17.1577C161.589 17.6395 162.783 19.6041 164.12 26.4241M147.017 13.2285H153.78C156.816 13.2285 158.879 11.5235 158.879 9.00229C158.879 6.48109 157.252 4.99829 154.25 4.99829H147.017V13.2263V13.2285Z" fill="#E8833A"/>
<path d="M176.535 13.1581H192.661V26.4285H189.262L187.995 18.6075C187.019 23.6125 183.332 26.8003 178.522 26.8003C171.942 26.8003 167.023 21.3135 167.023 13.7895C167.023 5.44926 172.121 0.112061 179.969 0.112061C186.079 0.112061 190.745 3.22506 192.299 8.63706L187.092 11.4553C186.259 6.74726 183.476 4.63526 179.932 4.63526C175.269 4.63526 172.303 8.12006 172.303 13.5321C172.303 18.9441 175.303 22.2793 180.042 22.2793C183.802 22.2793 186.585 20.3521 187.309 17.3117H176.533V13.1603L176.535 13.1581Z" fill="#E8833A"/>
<path d="M54.9517 0.503662H49.625V26.4263H54.9517V0.503662Z" fill="#E8833A"/>
<path d="M75.1504 13.4595L75.0753 13.4529L75.1504 13.4463C80.7712 12.5003 81.9494 9.52594 81.9494 7.19834C81.9494 5.21174 81.2197 3.40334 79.8977 2.10534C78.4641 0.699536 76.4725 0.0131359 74.1396 0.118736C72.7489 0.182536 70.6414 0.541136 68.6197 2.58054L57.8848 13.4529L68.6197 24.3253C70.6414 26.3647 72.7468 26.7233 74.1396 26.7871C76.4725 26.8927 78.4641 26.2063 79.8977 24.8005C81.2219 23.5025 81.9494 21.6941 81.9494 19.7075C81.9494 17.3799 80.769 14.4055 75.1504 13.4595Z" fill="#E8833A"/>
<path d="M55.8277 34.4761V35.7389H52.7394V43.6721H51.2543V35.7389H48.166V34.4761H55.8277Z" fill="#E8833A"/>
<path d="M61.582 41.7559C61.2493 43.0561 60.1462 43.8063 58.6096 43.8063C56.5471 43.8063 55.3281 42.4269 55.3281 40.2335C55.3281 37.9213 56.6094 36.6343 58.4937 36.6343C60.7879 36.6343 61.5562 38.2117 61.5562 40.5877H56.751C56.8412 41.9935 57.4807 42.7547 58.6224 42.7547C59.5968 42.7547 60.0968 42.2553 60.3007 41.3753L61.582 41.7559ZM56.7381 40.2049V40.2709L60.1591 39.6923C60.0947 38.5109 59.6848 37.6815 58.5452 37.6815C57.4056 37.6815 56.7381 38.4163 56.7381 40.2027" fill="#E8833A"/>
<path d="M64.48 38.8254C64.7611 37.4592 65.3642 36.6716 66.8257 36.6716V38.2226C65.7226 38.0378 64.9671 38.59 64.5443 39.3776V43.6742H63.0957V36.764H64.0443L64.48 38.8276V38.8254Z" fill="#E8833A"/>
<path d="M69.3354 38.8254C69.6166 37.4592 70.2196 36.6716 71.6812 36.6716V38.2226C70.578 38.0378 69.8226 38.59 69.3998 39.3776V43.6742H67.9512V36.764H68.8998L69.3354 38.8276V38.8254Z" fill="#E8833A"/>
<path d="M78.4081 41.7559C78.0755 43.0561 76.9724 43.8063 75.4357 43.8063C73.3733 43.8063 72.1543 42.4269 72.1543 40.2335C72.1543 37.9213 73.4355 36.6343 75.3198 36.6343C77.6141 36.6343 78.3824 38.2117 78.3824 40.5877H73.5772C73.6673 41.9935 74.3069 42.7547 75.4486 42.7547C76.423 42.7547 76.923 42.2553 77.1269 41.3753L78.4081 41.7559ZM73.5643 40.2049V40.2709L76.9852 39.6923C76.9209 38.5109 76.511 37.6815 75.3714 37.6815C74.2318 37.6815 73.5643 38.4163 73.5643 40.2027" fill="#E8833A"/>
<path d="M87.762 34.4761H89.1978V43.6721H88.2621L87.8135 41.8725C87.4165 43.1199 86.5838 43.8041 85.4549 43.8041C83.841 43.8041 82.7637 42.4907 82.7637 40.2313C82.7637 37.9719 83.841 36.6453 85.4549 36.6453C86.5323 36.6453 87.3392 37.2767 87.762 38.4185V34.4783V34.4761ZM87.762 41.3731V39.0609C87.3392 38.2469 86.6847 37.7871 85.9292 37.7871C84.839 37.7871 84.2123 38.6671 84.2123 40.2313C84.2123 41.7955 84.8411 42.6623 85.9292 42.6623C86.6847 42.6623 87.3392 42.2025 87.762 41.3753" fill="#E8833A"/>
<path d="M96.9628 41.7559C96.6302 43.0561 95.5271 43.8063 93.9904 43.8063C91.928 43.8063 90.709 42.4269 90.709 40.2335C90.709 37.9213 91.9902 36.6343 93.8745 36.6343C96.1688 36.6343 96.9371 38.2117 96.9371 40.5877H92.1319C92.222 41.9935 92.8616 42.7547 94.0033 42.7547C94.9777 42.7547 95.4777 42.2553 95.6816 41.3753L96.9628 41.7559ZM92.119 40.2049V40.2709L95.5399 39.6923C95.4756 38.5109 95.0656 37.6815 93.926 37.6815C92.7864 37.6815 92.119 38.4163 92.119 40.2027" fill="#E8833A"/>
<path d="M105.858 36.762H107.407L105.141 43.6722H103.102L100.859 36.762H102.411L104.141 42.6734L105.858 36.762Z" fill="#E8833A"/>
<path d="M115.199 43.5555C114.943 43.7271 114.456 43.8041 114.147 43.8041C113.083 43.8041 112.327 43.0165 112.327 42.1365V41.9517C111.827 43.1463 110.917 43.8041 109.93 43.8041C108.713 43.8041 107.906 43.0825 107.906 41.9913C107.906 40.9001 108.713 40.0729 109.969 40.0729C110.724 40.0729 111.583 40.3611 112.327 41.0321V39.2721C112.327 38.2469 111.776 37.6815 110.853 37.6815C109.853 37.6815 109.226 38.3789 109.084 39.5735L107.906 39.0081C108.125 37.6023 109.213 36.6299 110.904 36.6299C112.596 36.6299 113.763 37.6023 113.763 39.2567V41.9495C113.763 42.3961 113.982 42.6579 114.353 42.6579C114.609 42.6579 114.879 42.4995 115.021 42.3301L115.201 43.5511L115.199 43.5555ZM112.327 41.4919V41.3335C111.737 40.9265 111.11 40.7417 110.585 40.7417C109.791 40.7417 109.355 41.1883 109.355 41.7801C109.355 42.3719 109.829 42.7525 110.533 42.7525C111.201 42.7525 111.892 42.2927 112.327 41.4919Z" fill="#E8833A"/>
<path d="M117.505 34.4761H116.057V43.6721H117.505V34.4761Z" fill="#E8833A"/>
<path d="M125.271 41.7559C124.939 43.0561 123.836 43.8063 122.299 43.8063C120.237 43.8063 119.018 42.4269 119.018 40.2335C119.018 37.9213 120.299 36.6343 122.183 36.6343C124.477 36.6343 125.246 38.2117 125.246 40.5877H120.44C120.531 41.9935 121.17 42.7547 122.312 42.7547C123.286 42.7547 123.786 42.2553 123.99 41.3753L125.271 41.7559ZM120.428 40.2049V40.2709L123.849 39.6923C123.784 38.5109 123.374 37.6815 122.235 37.6815C121.095 37.6815 120.428 38.4163 120.428 40.2027" fill="#E8833A"/>
<path d="M131.241 36.762H132.69V43.6722H131.741L131.292 41.5448C130.973 42.8978 130.14 43.8042 128.869 43.8042C127.691 43.8042 126.717 42.9638 126.717 41.3072V36.762H128.153V41.1752C128.153 42.0948 128.601 42.6074 129.357 42.6074C130.176 42.6074 130.87 41.9892 131.241 40.9134V36.762Z" fill="#E8833A"/>
<path d="M135.945 38.8254C136.226 37.4592 136.829 36.6716 138.291 36.6716V38.2226C137.187 38.0378 136.432 38.59 136.009 39.3776V43.6742H134.561V36.764H135.509L135.945 38.8276V38.8254Z" fill="#E8833A"/>
<path d="M138.751 41.4919L139.864 40.8209C140.133 42.0815 140.978 42.7921 142.094 42.7921C142.837 42.7921 143.26 42.4511 143.26 41.9649C143.26 40.5327 139.03 41.3335 139.03 38.6671C139.03 37.4329 140.03 36.6299 141.515 36.6299C143 36.6299 144.245 37.4571 144.552 38.9553L143.448 39.5471C143.345 38.3789 142.603 37.6287 141.474 37.6287C140.77 37.6287 140.309 37.9301 140.309 38.4691C140.309 40.1367 144.549 39.3623 144.549 41.7933C144.549 43.0143 143.536 43.8041 141.974 43.8041C140.412 43.8041 139.141 43.0429 138.744 41.4919" fill="#E8833A"/>
</g>
<defs>
<clipPath id="clip0_257_9461">
<rect width="193" height="44" fill="white"/>
</clipPath>
</defs>
</svg>
