<svg width="193" height="34" viewBox="0 0 193 34" fill="none" xmlns="http://www.w3.org/2000/svg">
<path d="M94.8416 18.5112H88.6152V20.7118H94.8416V18.5112Z" fill="white"/>
<path d="M92.8043 16.4211H90.6562V22.8022H92.8043V16.4211Z" fill="white"/>
<path d="M25.4119 16.9895C23.4794 17.2244 22.7321 17.3089 22.7321 19.9276V23.9859C21.2351 25.0709 17.0238 25.9657 14.3119 25.9657C6.51749 25.9657 3.02148 20.3104 3.02148 14.7514C3.02148 8.4549 7.3359 3.28809 14.062 3.28809C16.8679 3.28809 19.2704 4.85222 20.0797 4.85222C20.8889 4.85222 21.203 4.18288 21.5148 3.38438H22.3561V10.8551H21.5767C20.4855 8.07444 17.8652 4.33789 14.3119 4.33789C9.78883 4.33789 8.54173 9.19235 8.54173 14.688C8.54173 16.9567 8.72971 24.9112 14.6236 24.9112C17.3746 24.9112 17.8652 23.953 17.8652 22.5791V19.2254C17.8652 17.1798 16.8679 17.1117 14.7153 16.9895V16.191H25.4119V16.9895Z" fill="#E8833A"/>
<path d="M40.6102 25.005H33.107V24.4249C34.5421 24.3052 34.9593 24.2817 34.9593 23.4996C34.9593 22.8585 34.2188 21.1041 33.8956 20.3432H28.6848C28.036 22.0506 27.6647 23.0252 27.6647 23.3963C27.6647 24.2981 28.7765 24.3686 29.5651 24.4179V25.0097H24.8633V24.4249C26.1127 24.2347 26.4382 23.4268 27.1328 21.649L32.2748 8.64502H32.9213L38.0862 21.1135C39.1293 23.6523 39.4984 24.4602 40.6079 24.4015L40.6102 25.005ZM33.5471 19.4061L31.2088 13.6404L29.031 19.4061H33.5471Z" fill="#E8833A"/>
<path d="M51.5812 13.7366C51.164 12.0738 49.7724 9.34479 47.0398 9.34479C45.8363 9.34479 44.5617 10.0494 44.5617 11.5994C44.5617 12.8817 45.0018 13.4031 46.9481 14.3989L50.3524 16.1321C51.1257 16.5521 51.7719 17.1811 52.2209 17.9508C52.6699 18.7204 52.9046 19.6014 52.8994 20.4981C52.8994 22.5859 51.4184 25.4559 47.1567 25.4559C44.956 25.4559 43.9152 24.6503 43.1954 24.6503C42.7094 24.6503 42.5947 25.0754 42.5076 25.4559H41.8359V19.5845H42.5076C42.9661 21.98 44.3141 24.6621 47.2553 24.6621C50.0361 24.6621 50.1507 22.3135 50.1507 22.0035C50.1507 20.4135 49.0618 19.8452 47.5579 19.1101L46.0059 18.3515C42.0445 16.4045 42.0445 14.3589 42.0445 13.2739C42.0445 11.8249 42.7644 8.59795 47.1636 8.59795C49.0159 8.59795 50.1048 9.38237 50.7765 9.38237C51.3084 9.38237 51.4253 9.02539 51.5399 8.57446H52.2277V13.7366H51.5812Z" fill="#E8833A"/>
<path d="M65.3537 25.0051H57.0825V24.425C58.7744 24.2817 59.3291 24.2347 59.3291 22.2408V9.72538C57.7084 9.82167 55.3242 9.9391 54.8611 13.7367H54.1895L54.2582 8.9668H68.1551L68.2033 13.7367H67.5316C67.0731 9.9391 64.682 9.82167 63.0842 9.72538V22.2291C63.0842 24.2465 63.6413 24.2935 65.3537 24.4132V25.0051Z" fill="#E8833A"/>
<path d="M81.7813 24.6199C78.9662 21.9801 75.9768 17.5742 75.9768 17.5742H75.351V22.2244C75.351 24.122 75.8622 24.1948 77.389 24.4085V25.0004H69.5625V24.425C71.1374 24.2347 71.6005 24.1643 71.6005 22.2408V11.7428C71.6005 9.70189 70.883 9.65492 69.5625 9.55863V8.9668H77.0268C78.6475 8.9668 83.558 9.15703 83.558 13.1425C83.558 16.0618 81.1715 16.7969 79.9221 17.1985C79.9221 17.1985 81.6025 19.648 84.6102 23.3822C85.4702 24.511 86.4302 25.5558 87.4781 26.5034C89.5827 28.4071 92.2126 29.5938 95.0042 29.8994C98.4246 30.3128 101.861 29.2113 104.816 26.6866L104.772 27.2151C104.772 27.2151 95.0432 37.0602 81.7813 24.6199ZM75.351 16.8204C78.3862 16.7969 79.5897 16.2731 79.5897 13.1895C79.5897 10.8034 78.6315 9.77235 76.7975 9.77235C75.5229 9.77235 75.4771 10.0354 75.3601 10.7705L75.351 16.8204Z" fill="#E8833A"/>
<path d="M119.706 13.7414C119.289 12.0833 117.899 9.35429 115.169 9.35429C113.965 9.35429 112.691 10.0589 112.691 11.6089C112.691 12.8889 113.131 13.4102 115.075 14.406L118.477 16.1369C119.25 16.5563 119.897 17.1848 120.346 17.9542C120.795 18.7235 121.029 19.6042 121.024 20.5005C121.024 22.586 119.543 25.456 115.293 25.456C113.094 25.456 112.054 24.6504 111.336 24.6504C110.85 24.6504 110.733 25.0755 110.648 25.456H109.977V19.5987H110.648C111.107 21.9942 112.452 24.6739 115.394 24.6739C118.17 24.6739 118.287 22.3253 118.287 22.0177C118.287 20.4301 117.198 19.8594 115.694 19.1243L114.142 18.3657C110.185 16.4211 110.185 14.3731 110.185 13.2928C110.185 11.8461 110.903 8.62154 115.3 8.62154C117.152 8.62154 118.241 9.40361 118.91 9.40361C119.444 9.40361 119.559 9.04663 119.674 8.5957H120.361V13.7414H119.706Z" fill="#E8833A"/>
<path d="M138.397 9.56791C137.122 9.75814 136.59 10.0188 136.59 11.5853V19.15C136.59 20.5474 136.267 22.6564 135.295 23.725C134.149 25.0049 132.122 25.4559 130.735 25.4559C129.715 25.4559 127.542 25.315 126.036 23.9622C125.041 23.0603 124.431 22.2313 124.431 19.6714V11.7427C124.431 9.7511 123.83 9.70413 122.535 9.56086V8.97607H130.357V9.56791C128.83 9.64071 128.113 9.6642 128.113 11.7497V19.6714C128.113 21.0218 128.113 24.2933 131.446 24.2933C135.52 24.2933 135.572 20.6672 135.572 19.15V11.9165C135.572 10.4698 135.295 9.6642 133.305 9.56791V8.97607H138.397V9.56791Z" fill="#E8833A"/>
<path d="M147.72 25.0049H139.611V24.4249C140.861 24.3051 141.764 24.2111 141.764 22.7409V11.2518C141.764 9.68769 140.675 9.64071 139.611 9.56791V8.97607H147.713V9.56791C146.624 9.61723 145.512 9.64071 145.512 11.2518V22.7292C145.512 24.2464 146.429 24.3192 147.713 24.4131L147.72 25.0049Z" fill="#E8833A"/>
<path d="M159.229 13.7414C158.812 12.0833 157.423 9.35429 154.692 9.35429C153.489 9.35429 152.217 10.0589 152.217 11.6089C152.217 12.8889 152.657 13.4102 154.598 14.406L158.003 16.1369C158.775 16.5568 159.421 17.1855 159.87 17.9548C160.318 18.724 160.553 19.6045 160.547 20.5005C160.547 22.586 159.066 25.456 154.816 25.456C152.618 25.456 151.577 24.6504 150.859 24.6504C150.373 24.6504 150.257 25.0755 150.172 25.456H149.5V19.5987H150.156C150.614 21.9942 151.962 24.6739 154.901 24.6739C157.677 24.6739 157.794 22.3253 157.794 22.0177C157.794 20.4301 156.705 19.8594 155.201 19.1243L153.652 18.3657C149.697 16.4211 149.697 14.3825 149.697 13.2928C149.697 11.8461 150.415 8.62154 154.812 8.62154C156.664 8.62154 157.753 9.40361 158.425 9.40361C158.956 9.40361 159.071 9.04663 159.188 8.5957H159.876V13.7414H159.229Z" fill="#E8833A"/>
<path d="M172.393 13.7414C171.976 12.0833 170.587 9.35429 167.856 9.35429C166.653 9.35429 165.378 10.0589 165.378 11.6089C165.378 12.8889 165.818 13.4102 167.762 14.406L171.167 16.1369C171.939 16.5568 172.585 17.1855 173.034 17.9548C173.482 18.724 173.717 19.6045 173.711 20.5005C173.711 22.586 172.231 25.456 167.98 25.456C165.782 25.456 164.741 24.6504 164.023 24.6504C163.537 24.6504 163.421 25.0755 163.336 25.456H162.664V19.5987H163.336C163.794 21.9942 165.14 24.6739 168.079 24.6739C170.857 24.6739 170.974 22.3253 170.974 22.0177C170.974 20.4301 169.885 19.8594 168.381 19.1243L166.829 18.3657C162.873 16.4211 162.873 14.3731 162.873 13.2928C162.873 11.8461 163.59 8.62154 167.987 8.62154C169.839 8.62154 170.926 9.40361 171.598 9.40361C172.13 9.40361 172.247 9.04663 172.361 8.5957H173.049V13.7414H172.393Z" fill="#E8833A"/>
<path d="M175.42 8.97607H188.776V13.7413H188.196C187.664 10.3758 186.02 9.78163 182.896 9.78163C181.623 9.78163 181.206 9.87792 181.206 10.8972V16.3975C183.427 16.421 184.608 15.8057 184.957 12.8747H185.557V20.8785H184.957C184.679 17.9147 183.499 17.2031 181.206 17.2031V22.9429C181.206 23.9857 181.646 24.2698 183.15 24.2698C185.42 24.2698 187.781 23.6522 189.239 20.073H189.885L188.968 25.0049H175.42V24.4249C176.738 24.2816 177.458 24.2111 177.458 22.7409V11.2518C177.458 9.68769 176.484 9.64071 175.42 9.56791V8.97607Z" fill="#E8833A"/>
<path d="M96.2986 27.7128C94.2203 27.6975 92.1928 27.0521 90.472 25.858C88.7511 24.6638 87.4139 22.9744 86.629 21.0028C85.8441 19.0312 85.6465 16.8656 86.0613 14.7791C86.4761 12.6927 87.4846 10.7787 88.9597 9.27864C90.4348 7.77856 92.3105 6.75951 94.3501 6.34998C96.3898 5.94046 98.5021 6.15879 100.421 6.97746C102.339 7.79613 103.979 9.17847 105.131 10.9502C106.284 12.7219 106.899 14.8037 106.899 16.933C106.885 19.8014 105.761 22.5471 103.774 24.5679C101.787 26.5887 99.0986 27.7197 96.2986 27.7128ZM96.2986 6.82949C94.3525 6.84572 92.4546 7.45177 90.8441 8.57125C89.2336 9.69074 87.9826 11.2736 87.2488 13.1202C86.515 14.9669 86.3312 16.9948 86.7206 18.9483C87.11 20.9019 88.0551 22.6936 89.4368 24.0977C90.8186 25.5019 92.5751 26.4555 94.4851 26.8386C96.395 27.2216 98.3729 27.0169 100.17 26.2502C101.966 25.4835 103.501 24.1891 104.581 22.5302C105.66 20.8713 106.236 18.9221 106.236 16.9283C106.223 14.2401 105.168 11.6672 103.305 9.77409C101.443 7.88094 98.9227 6.82199 96.2986 6.82949Z" fill="#E8833A"/>
<path d="M96.2979 27.1023C101.818 27.1023 106.293 22.5514 106.293 16.9377C106.293 11.324 101.818 6.77319 96.2979 6.77319C90.7777 6.77319 86.3027 11.324 86.3027 16.9377C86.3027 22.5514 90.7777 27.1023 96.2979 27.1023Z" fill="white"/>
<path d="M96.2979 27.1023C101.818 27.1023 106.293 22.5514 106.293 16.9377C106.293 11.324 101.818 6.77319 96.2979 6.77319C90.7777 6.77319 86.3027 11.324 86.3027 16.9377C86.3027 22.5514 90.7777 27.1023 96.2979 27.1023Z" fill="#141414"/>
<path d="M100.587 19.6739C97.728 18.7885 96.6895 16.2051 96.568 15.9327C95.8802 14.4249 95.7289 12.6588 95.0206 11.5597C93.9133 9.85229 92.4989 9.7513 92.1665 9.73251C91.4516 9.65433 90.7308 9.80532 90.1033 10.1646C89.6325 10.4291 89.2426 10.8223 88.9771 11.3004C88.7115 11.7785 88.5808 12.3228 88.5994 12.8725C88.5837 13.5714 88.832 14.2494 89.2924 14.7653C89.7528 15.2812 90.3899 15.5951 91.0707 15.6415C92.994 15.8552 93.4892 14.1807 93.4411 13.5888C93.3242 12.1586 92.2834 11.8133 91.6896 11.818C90.3485 11.818 90.3417 12.9078 90.3485 13.0534C90.3485 13.159 90.5113 13.9505 91.2816 13.9458C92.1137 13.9458 92.2971 13.0534 92.061 12.849C92.061 12.849 92.4072 12.9594 92.4553 13.5841C92.4618 13.7389 92.4356 13.8933 92.3784 14.0368C92.3213 14.1803 92.2346 14.3094 92.1242 14.4153C92.0138 14.5212 91.8824 14.6015 91.739 14.6506C91.5955 14.6997 91.4434 14.7164 91.293 14.6997C91.0653 14.697 90.8403 14.6478 90.6313 14.5551C90.4223 14.4623 90.2335 14.3279 90.0758 14.1595C89.918 13.9912 89.7946 13.7923 89.7128 13.5746C89.6309 13.3568 89.5922 13.1246 89.5989 12.8913C89.5989 12.3018 89.9313 10.7447 91.7653 10.6813C92.288 10.6625 93.5993 10.841 94.3237 12.3981C94.9083 13.6217 95.8252 17.6143 96.2356 19.6927C96.4534 20.8153 96.1485 19.3874 96.2195 19.6199C96.2906 19.8524 96.7262 22.5204 97.6156 24.0822C98.5051 25.644 99.5551 26.1231 100.167 26.2311C100.779 26.3391 103.085 24.62 103.189 24.2442C103.292 23.8684 103.221 22.3067 101.877 21.9591C100.575 21.6232 99.8347 22.3959 99.766 23.2954C99.688 24.3029 101.157 25.1954 101.756 24.0469C101.9 23.7722 101.79 22.7881 100.839 23.1334C100.839 23.1334 101.139 22.6049 101.852 22.9736C102.311 23.2085 102.283 23.8966 102.262 24.0422C102.203 24.3991 102.022 24.723 101.752 24.9564C101.482 25.1898 101.14 25.3177 100.786 25.3175C99.7729 25.3527 98.4111 24.512 97.6432 21.325C96.8752 18.138 97.0311 18.4081 97.0311 18.4081C97.0311 18.4081 98.5349 20.5593 101.905 20.8412C104.264 21.0384 105.465 19.8242 106.031 19.1596C106.261 18.8895 107.448 16.4752 105.891 14.2276C104.988 12.9265 102.817 12.5837 101.701 12.9571C100.11 13.4996 99.6238 14.742 99.6559 15.7143C99.6903 16.7688 100.344 18.2742 102.242 18.2977C102.475 18.3126 102.709 18.2792 102.929 18.1995C103.149 18.1199 103.351 17.9955 103.524 17.834C103.696 17.6724 103.835 17.4769 103.931 17.2592C104.028 17.0415 104.081 16.806 104.087 16.5668C104.087 16.2568 104.002 15.2046 102.879 15.059C101.848 14.9228 101.65 15.7378 101.682 16.1135C101.715 16.4893 102.113 17.2056 103.074 16.7946C103.074 16.7946 102.659 17.7716 101.469 17.2056C100.972 16.9708 100.637 16.5879 100.596 15.6931C100.559 14.9322 101.284 13.6804 102.847 13.7885C104.775 13.92 105.733 15.1224 105.733 16.9496C105.733 18.8872 103.684 20.6392 100.587 19.6739Z" fill="#E8833A"/>
<path d="M94.8416 18.5112H88.6152V20.7118H94.8416V18.5112Z" fill="#E8833A"/>
<path d="M92.8043 16.4211H90.6562V22.8022H92.8043V16.4211Z" fill="#E8833A"/>
</svg>
