<svg width="193" height="51" viewBox="0 0 193 51" fill="none" xmlns="http://www.w3.org/2000/svg">
<g clip-path="url(#clip0_257_9506)">
<path fill-rule="evenodd" clip-rule="evenodd" d="M172.08 43.456V33.1944H183.958L183.957 27.0634H172.08V17.7286H184.994C187.19 17.8614 188.675 18.9544 188.675 20.8018C188.675 22.1879 188.694 23.023 188.694 23.023H193V11.0703H157.651V16.8711C157.651 16.8711 159.057 15.9208 160.469 15.9208C162.479 15.9208 164.423 16.8814 164.423 19.2798V41.6222C164.423 44.0214 162.799 45.295 160.79 45.295C159.378 45.295 157.651 44.3461 157.651 44.3461V50.1469H193V38.1946H188.694C188.694 38.1946 188.675 39.0297 188.675 40.4155C188.675 42.1304 187.403 43.2043 185.466 43.456H172.08ZM121.157 50.1469H155.593V38.1946H151.286C151.286 38.1946 151.268 39.0297 151.268 40.4155C151.268 42.3883 149.587 43.5155 147.144 43.5155L135.531 43.5184V19.2798C135.531 17.0949 137.422 15.9212 139.43 15.9212C140.843 15.9212 142.456 16.8707 142.456 16.8707V11.0703H121.157V16.8711C121.157 16.8711 122.884 15.9208 124.242 15.9208C126.305 15.9208 127.929 16.8814 127.929 19.2798V41.9906C127.929 44.3355 126.02 45.295 124.562 45.295C123.204 45.295 121.157 44.3461 121.157 44.3461V50.1469ZM84.4694 50.1469H118.906V38.1946H114.6C114.6 38.1946 114.582 39.0297 114.582 40.4155C114.582 42.3883 112.9 43.5155 110.457 43.5155L98.844 43.5184V19.2798C98.844 17.0949 100.735 15.9212 102.744 15.9212C104.156 15.9212 105.77 16.8707 105.77 16.8707V11.0703H84.4694V16.8711C84.4694 16.8711 86.1967 15.9208 87.5544 15.9208C89.6181 15.9208 91.2416 16.8814 91.2416 19.2798V41.9906C91.2416 44.3355 89.3336 45.295 87.8755 45.295C86.5178 45.295 84.4694 44.3461 84.4694 44.3461V50.1469ZM79.1304 15.9212C80.5964 15.9212 81.6274 16.8707 81.6274 16.8707V11.0703H62.1482V16.5567C62.1482 16.5567 63.1752 15.9212 64.5329 15.9212C66.5966 15.9212 68.4321 17.0949 68.4321 19.2798V35.2733C68.4321 40.5505 67.0744 44.3355 60.3948 44.3355C54.2595 44.3355 52.1959 40.5505 52.1959 35.2729V19.2795C52.1959 17.0949 54.0855 15.9212 56.1488 15.9212C57.5618 15.9212 58.4794 16.5567 58.4794 16.5567V11.0703H38.7822V16.8711C38.7822 16.8711 39.8685 15.9208 41.2262 15.9208C43.2899 15.9208 44.6472 17.0406 44.6472 19.387V35.806C44.6472 45.6156 50.784 51 60.2328 51C69.6816 51 75.7631 46.2555 75.7631 35.8057V19.2798C75.7631 16.8814 77.175 15.9212 79.1304 15.9212ZM31.6793 29.4087C33.9057 28.4496 35.9152 25.3041 35.9152 21.9458C35.9152 15.2281 31.8424 11.0707 22.2301 11.0707H0.0358375V16.8704C0.0358375 16.8704 1.38796 15.9208 2.85394 15.9208C4.86345 15.9208 6.80801 16.881 6.80801 19.2795V41.9902C6.80801 44.1752 5.02659 45.2946 2.96294 45.2946C1.49696 45.2946 0 44.3458 0 44.3458V50.1466H23.5337C35.8603 50.1466 37.8157 43.2689 37.8157 37.9385C37.8157 33.7264 34.9924 30.5813 31.6793 29.4087ZM28.3669 21.9986C28.3669 24.9306 26.8998 27.0638 23.0995 27.0638H14.41V17.7333H22.2305C26.0322 17.7333 28.3669 18.9603 28.3669 21.9986ZM29.9419 37.7785C29.9419 40.924 28.6924 43.4825 23.5337 43.4825H14.4104V33.1944H23.425C26.7923 33.1944 29.9419 34.2067 29.9419 37.7785ZM30.7938 5.81657H34.924V5.14036H31.5613V3.16457H34.4626V2.48946H31.5613V0.675842H34.7587V0H30.7938V5.81657ZM28.6685 5.20934C29.2173 4.66999 29.5398 3.84885 29.5398 2.88205C29.5398 1.7795 29.078 0.880942 28.4423 0.419007C27.8674 0.00843885 27.2399 0 26.2906 0H24.8444V5.81657H26.2562C27.4053 5.81657 28.0328 5.81657 28.6685 5.20934ZM28.7731 2.91727C28.7731 3.77253 28.477 4.46562 28.0761 4.79033C27.6404 5.1488 27.1443 5.1488 26.4298 5.1488H25.6104V0.676209H26.3159C27.179 0.676209 27.6319 0.701525 28.05 1.04422C28.5032 1.43681 28.7734 2.17319 28.7734 2.91727H28.7731ZM17.2125 5.81657H21.3416V5.14036H17.9789V3.16457H20.8802V2.48946H17.9785V0.675842H21.1759V0H17.2125V5.81657ZM12.6637 5.81657H16.3669V5.14036H13.4398V0H12.6633L12.6637 5.81657ZM8.11608 5.81657H11.8193V5.14036H8.89219V0H8.11571L8.11608 5.81657ZM5.86877 5.81657H6.63517V0H5.86839L5.86877 5.81657ZM2.9327 5.81657L5.06653 0H4.28258L2.79309 4.14824C2.71043 4.35319 2.63756 4.56182 2.5747 4.77345H2.56612C2.52281 4.63623 2.42687 4.33683 2.34885 4.14824L0.902658 0H0.0918337L2.1663 5.81657H2.9327Z" fill="#E8833A"/>
</g>
<defs>
<clipPath id="clip0_257_9506">
<rect width="193" height="51" fill="white"/>
</clipPath>
</defs>
</svg>
